<?xml version="1.0" encoding="UTF-8"?>
<svg id="Layer_1" xmlns="http://www.w3.org/2000/svg" version="1.1" viewBox="0 0 1080 1080">
  <!-- Generator: Adobe Illustrator 30.0.0, SVG Export Plug-In . SVG Version: 2.1.1 Build 123)  -->
  <path d="M888.18,556.98c-115.27-126.83-311.52-136.21-438.35-20.94l6.98-6.98c61.73-59.86,95.93-142.59,94.49-228.56V6.74h-155.02v294.43c.18,22.06-4.01,43.93-12.33,64.36-8.33,20.5-20.66,39.12-36.29,54.78l-236.5,234.31,109.56,109.56,211.03-209.66c-52.42,57.02-81.55,131.63-81.62,209.08-.16,170.85,138.22,309.49,309.07,309.65,170.85.16,309.49-138.22,309.65-309.07-.37-76.66-29.1-150.48-80.67-207.21ZM828.06,764.19c-.06,44.81-18,87.75-49.85,119.28-15.67,15.65-34.29,28.03-54.78,36.43-20.06,8.13-41.5,12.31-63.15,12.31-92.8,0-168.02-75.24-168.02-168.05,0-92.8,75.24-168.02,168.05-168.02,92.8,0,168.02,75.24,168.02,168.05h-.27Z"/>
</svg>